<svg width="40" height="40" viewBox="0 0 40 40" fill="none" xmlns="http://www.w3.org/2000/svg">
<path fill-rule="evenodd" clip-rule="evenodd" d="M35.9998 25.0584V19.5815C35.2268 20.5476 34.2994 21.3792 33.2552 22.043V23.6924H28.2214C27.9506 23.6924 27.6676 23.6924 27.3846 23.6924C27.1014 23.6924 26.8184 23.6924 26.5476 23.6924H25.7846C25.4182 23.6994 25.0692 23.8496 24.8122 24.1108L22.1908 26.8184H17.8092L15.1877 24.1108C14.9307 23.8496 14.5817 23.6994 14.2154 23.6924H6.74467V10.4862H16.5169C16.6984 9.51457 17.0175 8.57381 17.4646 7.69229H5.36623C4.99951 7.69877 4.65021 7.84985 4.39435 8.11263C4.13849 8.37541 3.99677 8.72861 4.00009 9.09537V25.0954C3.99795 25.4038 4.09833 25.704 4.28547 25.9492C4.47261 26.1942 4.73589 26.3702 5.03391 26.4492C4.70653 26.7702 4.44647 27.1532 4.26895 27.5758C4.09141 27.9984 4.00001 28.4524 4.00009 28.9108C3.99351 29.803 4.34085 30.6616 4.96601 31.2982C5.59117 31.935 6.44319 32.298 7.33543 32.3076C7.85619 32.3034 8.36877 32.1776 8.83241 31.9406C9.29603 31.7034 9.69795 31.3612 10.0062 30.9416C10.3055 31.3558 10.697 31.695 11.1499 31.932C11.6027 32.169 12.1044 32.2978 12.6154 32.3076C13.0593 32.3028 13.4979 32.2104 13.906 32.0358C14.3141 31.861 14.6837 31.6074 14.9936 31.2896C15.3035 30.9716 15.5476 30.5958 15.7118 30.1832C15.8761 29.7708 15.9573 29.33 15.9508 28.8862L16.2092 29.157C16.334 29.2896 16.4847 29.3952 16.6519 29.4672C16.8192 29.5392 16.9994 29.576 17.1815 29.5754H22.72C22.902 29.576 23.0822 29.5392 23.2496 29.4672C23.4168 29.3952 23.5674 29.2896 23.6922 29.157L23.9506 28.8862C23.944 29.3384 24.0284 29.7872 24.1988 30.2062C24.369 30.6252 24.622 31.0056 24.9424 31.3248C25.2626 31.644 25.644 31.8956 26.0636 32.0644C26.4832 32.2332 26.9324 32.316 27.3846 32.3076C27.9038 32.3054 28.4154 32.1804 28.8774 31.943C29.3394 31.7056 29.7386 31.3624 30.043 30.9416C30.4676 31.4936 31.055 31.8982 31.7222 32.0984C32.3892 32.2986 33.1024 32.284 33.7608 32.0568C34.4192 31.8296 34.9896 31.4014 35.3914 30.8324C35.7932 30.2634 36.006 29.5826 35.9998 28.8862C35.9998 28.4278 35.9084 27.9738 35.731 27.5512C35.5534 27.1286 35.2934 26.7456 34.966 26.4246C35.266 26.345 35.5308 26.1672 35.7182 25.9196C35.9056 25.672 36.0048 25.369 35.9998 25.0584ZM7.33543 30.4492C7.02439 30.459 6.71749 30.3758 6.45405 30.21C6.19061 30.0444 5.98263 29.8038 5.85673 29.5192C5.73085 29.2346 5.69279 28.9188 5.74743 28.6126C5.80205 28.3062 5.94691 28.023 6.16341 27.7994C6.37993 27.576 6.65823 27.4222 6.96271 27.3576C7.26717 27.2932 7.58395 27.3212 7.87243 27.438C8.16093 27.5546 8.40801 27.7548 8.58203 28.0128C8.75607 28.2708 8.84911 28.575 8.84927 28.8862C8.85261 29.2932 8.69575 29.6854 8.41253 29.9778C8.12929 30.2702 7.74243 30.4396 7.33543 30.4492ZM12.6154 30.4492C12.3048 30.4566 11.999 30.3712 11.7372 30.204C11.4753 30.0368 11.2693 29.7952 11.1453 29.5104C11.0213 29.2254 10.985 28.91 11.0411 28.6044C11.0972 28.2988 11.243 28.017 11.4601 27.7946C11.6772 27.5724 11.9555 27.4198 12.2597 27.3564C12.5639 27.293 12.88 27.3218 13.1678 27.4388C13.4556 27.556 13.7019 27.7562 13.8753 28.014C14.0488 28.2718 14.1415 28.5754 14.1415 28.8862C14.1448 29.0892 14.1078 29.291 14.0327 29.4796C13.9576 29.6684 13.8459 29.8402 13.7041 29.9856C13.5622 30.131 13.3929 30.2466 13.2061 30.3262C13.0192 30.4058 12.8185 30.4476 12.6154 30.4492ZM27.286 30.4492C26.975 30.459 26.668 30.3758 26.4046 30.21C26.1412 30.0444 25.9332 29.8038 25.8074 29.5192C25.6814 29.2346 25.6434 28.9188 25.698 28.6126C25.7526 28.3062 25.8976 28.023 26.114 27.7994C26.3306 27.576 26.6088 27.4222 26.9134 27.3576C27.2178 27.2932 27.5346 27.3212 27.823 27.438C28.1116 27.5546 28.3586 27.7548 28.5326 28.0128C28.7066 28.2708 28.7998 28.575 28.7998 28.8862C28.8044 29.2772 28.6612 29.6554 28.3988 29.9452C28.1362 30.2352 27.774 30.4152 27.3846 30.4492H27.286ZM32.6152 30.4492C32.3046 30.4566 31.9988 30.3712 31.737 30.204C31.4752 30.0368 31.269 29.7952 31.1452 29.5104C31.0212 29.2254 30.9848 28.91 31.041 28.6044C31.097 28.2988 31.2428 28.017 31.46 27.7946C31.677 27.5724 31.9554 27.4198 32.2596 27.3564C32.5638 27.293 32.8798 27.3218 33.1676 27.4388C33.4554 27.556 33.7018 27.7562 33.8752 28.014C34.0486 28.2718 34.1412 28.5754 34.1414 28.8862C34.1482 29.288 33.9974 29.6764 33.7214 29.9686C33.4454 30.2608 33.066 30.4332 32.6644 30.4492H32.6152ZM34.6336 33.5384H5.36623C5.03981 33.5384 4.72675 33.6682 4.49595 33.899C4.26513 34.1298 4.13547 34.4428 4.13547 34.7692C4.13547 35.0956 4.26513 35.4088 4.49595 35.6396C4.72675 35.8704 5.03981 36 5.36623 36H34.6336C34.9602 36 35.2732 35.8704 35.504 35.6396C35.7348 35.4088 35.8644 35.0956 35.8644 34.7692C35.8644 34.4428 35.7348 34.1298 35.504 33.899C35.2732 33.6682 34.9602 33.5384 34.6336 33.5384Z" fill="black"/>
<path fill-rule="evenodd" clip-rule="evenodd" d="M10.1538 13.6112V20.235C10.1538 20.7792 10.5617 21.2308 11.0769 21.2308C11.5921 21.2308 11.9999 20.7908 11.9999 20.235V13.6112C11.9999 13.067 11.5921 12.6154 11.0769 12.6154C10.5617 12.6154 10.1538 13.067 10.1538 13.6112Z" fill="black"/>
<path fill-rule="evenodd" clip-rule="evenodd" d="M14.4615 13.6112V20.235C14.4615 20.7792 14.8694 21.2308 15.3846 21.2308C15.8998 21.2308 16.3077 20.7908 16.3077 20.235V13.6112C16.3077 13.067 15.8998 12.6154 15.3846 12.6154C14.8694 12.6154 14.4615 13.067 14.4615 13.6112Z" fill="black"/>
<path fill-rule="evenodd" clip-rule="evenodd" d="M27.3847 21.2308C32.1427 21.2308 35.9999 17.3735 35.9999 12.6154C35.9999 7.85724 32.1427 4 27.3847 4C22.6265 4 18.7693 7.85724 18.7693 12.6154C18.7693 17.3735 22.6265 21.2308 27.3847 21.2308ZM26.4615 8.92308V11.6923H23.6923V13.5385H26.4615V16.3077H28.3077V13.5385H31.0769V11.6923H28.3077V8.92308H26.4615Z" fill="black"/>
</svg>
