<svg width="32" height="32" viewBox="0 0 32 32" fill="none" xmlns="http://www.w3.org/2000/svg">
<path d="M27.8515 25.353C27.7827 26.2814 27.3544 27.151 26.6518 27.7896C25.9491 28.428 25.0233 28.7886 24.0577 28.8H23.8396C23.3342 28.772 22.8396 28.6467 22.3852 28.4315C21.9308 28.2165 21.5256 27.9158 21.1936 27.5474L13.4639 18.9618C12.0952 19.2827 10.6635 19.2542 9.30974 18.8795C8.17542 18.5835 7.11955 18.0579 6.21246 17.3378C5.30539 16.6176 4.56792 15.7192 4.04923 14.7027C3.53053 13.6861 3.24249 12.5747 3.20432 11.4424C3.16614 10.3101 3.3787 9.18301 3.82784 8.13615L4.42534 6.76464L8.88296 11.7477L11.5291 11.254L12.4016 8.77616L7.93452 3.80221L9.41408 3.44562C10.9375 3.0717 12.5402 3.12563 14.0329 3.60106C14.7356 3.82024 15.4052 4.12765 16.0246 4.51539L16.1668 4.61597C15.7144 5.04584 15.3106 5.52091 14.9624 6.03319C14.4869 5.73391 13.9737 5.49426 13.4354 5.32C12.8222 5.13037 12.1826 5.03171 11.5385 5.02741L14.0803 7.88927L14.5166 8.38301L13.6251 10.8609L12.9138 12.8449L8.11473 13.7593L5.14616 10.3945C5.0564 11.001 5.0564 11.6167 5.14616 12.2232C5.33806 13.3845 5.8731 14.4678 6.68723 15.3435C7.50137 16.2192 8.56006 16.8501 9.73654 17.1606C10.9404 17.4882 12.2182 17.4627 13.407 17.0874L14.0045 16.9046L22.5403 26.3862C22.7054 26.5707 22.907 26.7216 23.1334 26.8299C23.3598 26.9382 23.6064 27.0019 23.8587 27.0171C24.383 27.047 24.8984 26.8752 25.2913 26.5392C25.6843 26.2032 25.9228 25.7304 25.9547 25.225C25.9876 24.7274 25.8212 24.2365 25.4899 23.8534L20.7478 18.6326C21.2148 18.7077 21.6875 18.7445 22.1609 18.7424C22.5478 18.7411 22.9342 18.7166 23.318 18.6693L26.903 22.6648C27.5726 23.4064 27.9132 24.3717 27.8515 25.353Z" fill="black"/>
<path d="M22.1609 4.11343C20.8479 4.11343 19.5643 4.48881 18.4726 5.19207C17.3807 5.89535 16.5299 6.89495 16.0273 8.06446C15.5248 9.23396 15.3934 10.5208 15.6495 11.7624C15.9057 13.0039 16.538 14.1443 17.4665 15.0394C18.395 15.9346 19.5779 16.5442 20.8657 16.791C22.1535 17.0381 23.4884 16.9114 24.7015 16.4269C25.9147 15.9424 26.9516 15.1221 27.6811 14.0696C28.4105 13.017 28.7999 11.7796 28.7999 10.5137C28.7999 8.81628 28.1004 7.18833 26.8555 5.98804C25.6103 4.78775 23.9217 4.11343 22.1609 4.11343ZM25.0062 11.1995H22.8723V13.2567H21.4497V11.1995H19.3156V9.82799H21.4497V7.77075H22.8723V9.82799H25.0062V11.1995Z" fill="black"/>
</svg>
