<svg width="24" height="24" viewBox="0 0 24 24" fill="none" xmlns="http://www.w3.org/2000/svg">
<rect width="24" height="24" fill="white"/>
<path fill-rule="evenodd" clip-rule="evenodd" d="M3 1V4H0V6H3V9H5V6H8V4H5V1H3ZM6 7V10H3V20C3 21.1 3.9 22 5 22H21C22.1 22 23 21.1 23 20V8C23 6.9 22.1 6 21 6H17.83L16 4H9V7H6ZM13 19C15.76 19 18 16.76 18 14C18 11.24 15.76 9 13 9C10.24 9 8 11.24 8 14C8 16.76 10.24 19 13 19ZM13 17C11.34 17 10 15.66 10 14C10 12.34 11.34 11 13 11C14.66 11 16 12.34 16 14C16 15.66 14.66 17 13 17Z" fill="#007DBA"/>
</svg>
