<svg width="24" height="24" viewBox="0 0 24 24" fill="none" xmlns="http://www.w3.org/2000/svg">
<mask id="mask0_141_2339" style="mask-type:alpha" maskUnits="userSpaceOnUse" x="2" y="2" width="20" height="20">
<path d="M17.3742 2.86572C17.8712 2.86572 18.2742 3.26867 18.2742 3.76572L18.274 4.88052L20.7681 4.88169C21.2238 4.88169 21.6003 5.22027 21.6599 5.65956L21.6681 5.78169V20.1817C21.6681 20.6787 21.2652 21.0817 20.7681 21.0817H3.31357C2.81652 21.0817 2.41357 20.6787 2.41357 20.1817V5.78169C2.41357 5.28463 2.81652 4.88169 3.31357 4.88169L5.80717 4.88052L5.80751 3.76572C5.80751 3.31009 6.1461 2.93353 6.58539 2.87394L6.70751 2.86572C7.20457 2.86572 7.60751 3.26867 7.60751 3.76572L7.60717 4.88052H16.474L16.4742 3.76572C16.4742 3.31009 16.8128 2.93353 17.2521 2.87394L17.3742 2.86572ZM7.94077 16.3945H4.21237L4.21357 19.2817L7.94077 19.2805V16.3945ZM14.3404 16.3945H9.74078V19.2805H14.3404V16.3945ZM19.8676 16.3945H16.1404V19.2805L19.8681 19.2817L19.8676 16.3945ZM7.94077 11.6305H4.21237V14.5945H7.94077V11.6305ZM14.3404 11.6305H9.74078V14.5945H14.3404V11.6305ZM19.8676 11.6305H16.1404V14.5945H19.8676V11.6305ZM5.80717 6.68052L4.21357 6.68169L4.21237 9.83052H19.8676L19.8681 6.68169L18.274 6.68052L18.2742 7.61502C18.2742 8.07066 17.9356 8.44721 17.4963 8.50681L17.3742 8.51502C16.8771 8.51502 16.4742 8.11208 16.4742 7.61502L16.474 6.68052H7.60717L7.60751 7.61502C7.60751 8.07066 7.26893 8.44721 6.82964 8.50681L6.70751 8.51502C6.21046 8.51502 5.80751 8.11208 5.80751 7.61502L5.80717 6.68052Z" fill="white"/>
</mask>
<g mask="url(#mask0_141_2339)">
<path d="M17.3742 2.86572C17.8712 2.86572 18.2742 3.26867 18.2742 3.76572L18.274 4.88052L20.7681 4.88169C21.2238 4.88169 21.6003 5.22027 21.6599 5.65956L21.6681 5.78169V20.1817C21.6681 20.6787 21.2652 21.0817 20.7681 21.0817H3.31357C2.81652 21.0817 2.41357 20.6787 2.41357 20.1817V5.78169C2.41357 5.28463 2.81652 4.88169 3.31357 4.88169L5.80717 4.88052L5.80751 3.76572C5.80751 3.31009 6.1461 2.93353 6.58539 2.87394L6.70751 2.86572C7.20457 2.86572 7.60751 3.26867 7.60751 3.76572L7.60717 4.88052H16.474L16.4742 3.76572C16.4742 3.31009 16.8128 2.93353 17.2521 2.87394L17.3742 2.86572ZM7.94077 16.3945H4.21237L4.21357 19.2817L7.94077 19.2805V16.3945ZM14.3404 16.3945H9.74078V19.2805H14.3404V16.3945ZM19.8676 16.3945H16.1404V19.2805L19.8681 19.2817L19.8676 16.3945ZM7.94077 11.6305H4.21237V14.5945H7.94077V11.6305ZM14.3404 11.6305H9.74078V14.5945H14.3404V11.6305ZM19.8676 11.6305H16.1404V14.5945H19.8676V11.6305ZM5.80717 6.68052L4.21357 6.68169L4.21237 9.83052H19.8676L19.8681 6.68169L18.274 6.68052L18.2742 7.61502C18.2742 8.07066 17.9356 8.44721 17.4963 8.50681L17.3742 8.51502C16.8771 8.51502 16.4742 8.11208 16.4742 7.61502L16.474 6.68052H7.60717L7.60751 7.61502C7.60751 8.07066 7.26893 8.44721 6.82964 8.50681L6.70751 8.51502C6.21046 8.51502 5.80751 8.11208 5.80751 7.61502L5.80717 6.68052Z" fill="black"/>
</g>
</svg>
