<svg width="20" height="20" viewBox="0 0 20 20" fill="none" xmlns="http://www.w3.org/2000/svg">
<path d="M15.3742 0.865723C15.8712 0.865723 16.2742 1.26867 16.2742 1.76572L16.274 2.88052L18.7681 2.88169C19.2237 2.88169 19.6003 3.22027 19.6599 3.65956L19.6681 3.78169V18.1817C19.6681 18.6787 19.2652 19.0817 18.7681 19.0817H1.31356C0.816503 19.0817 0.413559 18.6787 0.413559 18.1817V3.78169C0.413559 3.28463 0.816503 2.88169 1.31356 2.88169L3.80716 2.88052L3.8075 1.76572C3.8075 1.31009 4.14608 0.933534 4.58537 0.873939L4.7075 0.865723C5.20456 0.865723 5.6075 1.26867 5.6075 1.76572L5.60716 2.88052H14.474L14.4742 1.76572C14.4742 1.31009 14.8127 0.933534 15.252 0.873939L15.3742 0.865723ZM5.94076 14.3945H2.21236L2.21356 17.2817L5.94076 17.2805V14.3945ZM12.3404 14.3945H7.74076V17.2805H12.3404V14.3945ZM17.8676 14.3945H14.1404V17.2805L17.8681 17.2817L17.8676 14.3945ZM5.94076 9.63052H2.21236V12.5945H5.94076V9.63052ZM12.3404 9.63052H7.74076V12.5945H12.3404V9.63052ZM17.8676 9.63052H14.1404V12.5945H17.8676V9.63052ZM3.80716 4.68052L2.21356 4.68169L2.21236 7.83052H17.8676L17.8681 4.68169L16.274 4.68052L16.2742 5.61502C16.2742 6.07066 15.9356 6.44721 15.4963 6.50681L15.3742 6.51502C14.8771 6.51502 14.4742 6.11208 14.4742 5.61502L14.474 4.68052H5.60716L5.6075 5.61502C5.6075 6.07066 5.26891 6.44721 4.82962 6.50681L4.7075 6.51502C4.21044 6.51502 3.8075 6.11208 3.8075 5.61502L3.80716 4.68052Z" fill="black"/>
</svg>
