<svg width="30" height="30" viewBox="0 0 30 30" fill="none" xmlns="http://www.w3.org/2000/svg">
<path d="M15 18C16.6569 18 18 16.6569 18 15C18 13.3431 16.6569 12 15 12C13.3431 12 12 13.3431 12 15C12 16.6569 13.3431 18 15 18Z" fill="white"/>
<path d="M15 27C16.6569 27 18 25.6569 18 24C18 22.3432 16.6569 21 15 21C13.3431 21 12 22.3432 12 24C12 25.6569 13.3431 27 15 27Z" fill="white"/>
<path d="M15 8.99994C16.6569 8.99994 18 7.65679 18 5.99994C18 4.34308 16.6569 2.99994 15 2.99994C13.3431 2.99994 12 4.34308 12 5.99994C12 7.65679 13.3431 8.99994 15 8.99994Z" fill="white"/>
</svg>
