<svg width="28" height="28" viewBox="0 0 28 28" fill="none" xmlns="http://www.w3.org/2000/svg">
<path d="M14.0412 25.5025L13.9114 25.4996L13.7431 25.4716L13.6892 25.4566L13.5415 25.3982L13.4018 25.3164L13.382 25.3024C13.3385 25.2706 13.2969 25.2351 13.2576 25.1958L13.3644 25.2882L13.3278 25.26L13.2575 25.1957L10.2709 22.2091C9.86083 21.7991 9.86083 21.1342 10.2709 20.7242C10.6437 20.3514 11.227 20.3175 11.638 20.6225L11.7558 20.7242L12.95 21.9198V15.05H6.08021L7.27581 16.2442C7.68586 16.6542 7.68586 17.3191 7.27581 17.7291C6.90304 18.1019 6.31971 18.1358 5.90865 17.8308L5.79088 17.7291L2.80422 14.7425C2.76613 14.7044 2.73158 14.6641 2.70057 14.622L2.62771 14.5083L2.54339 14.3104L2.50861 14.1587L2.49748 14.0412L2.50036 13.9114L2.51122 13.8249L2.54344 13.6892L2.60184 13.5414L2.68362 13.4018L2.74821 13.3168L2.80422 13.2575L5.79088 10.2709C6.20094 9.86081 6.86576 9.86081 7.27581 10.2709C7.64858 10.6436 7.68247 11.227 7.37747 11.638L7.27581 11.7558L6.07881 12.95H12.95V6.07879L11.7558 7.27579C11.383 7.64856 10.7997 7.68245 10.3886 7.37745L10.2709 7.27579C9.89811 6.90301 9.86422 6.31968 10.1692 5.90863L10.2709 5.79086L13.2845 2.77814L13.3803 2.69885L13.4769 2.63604L13.6478 2.55724L13.8259 2.51111L13.9602 2.49741L14.0886 2.50034L14.2569 2.52841L14.3108 2.54342L14.4586 2.60181L14.5982 2.6836L14.6342 2.71039L14.7425 2.8042L17.7291 5.79086C18.1392 6.20091 18.1392 6.86574 17.7291 7.27579C17.3564 7.64856 16.773 7.68245 16.362 7.37745L16.2442 7.27579L15.05 6.08019V12.95H21.9198L20.7242 11.7558C20.3514 11.383 20.3176 10.7997 20.6226 10.3886L20.7242 10.2709C21.097 9.89809 21.6803 9.8642 22.0914 10.1692L22.2091 10.2709L25.2456 13.3109L25.3159 13.401L25.3723 13.4917L25.4135 13.5743L25.443 13.6486L25.4809 13.7836L25.4978 13.8916L25.5026 13.9602L25.4997 14.0886L25.4888 14.1751L25.4566 14.3108L25.3982 14.4585L25.3164 14.5982L25.2519 14.6818L22.2091 17.7291C21.7991 18.1392 21.1343 18.1392 20.7242 17.7291C20.3514 17.3563 20.3176 16.773 20.6226 16.362L20.7242 16.2442L21.9184 15.05H15.05V21.9184L16.2442 20.7242C16.617 20.3514 17.2003 20.3175 17.6114 20.6225L17.7291 20.7242C18.1019 21.097 18.1358 21.6803 17.8308 22.0914L17.7291 22.2091L14.6891 25.2456L14.5977 25.3169L14.5084 25.3723L14.3909 25.4282L14.3104 25.4566L14.1587 25.4914L14.0412 25.5025Z" fill="white"/>
</svg>
