<svg width="28" height="28" viewBox="0 0 28 28" fill="none" xmlns="http://www.w3.org/2000/svg">
<mask id="mask0_340_661" style="mask-type:alpha" maskUnits="userSpaceOnUse" x="2" y="2" width="24" height="24">
<path d="M17.392 2.45813C17.9236 2.45813 18.3629 2.85315 18.4324 3.36565L18.442 3.50813V5.20773L24.8758 5.20813C25.4073 5.20813 25.8467 5.60315 25.9162 6.11565L25.9258 6.25813C25.9258 6.7897 25.5308 7.22902 25.0182 7.29854L24.8758 7.30813L22.922 7.30773V24.4081C22.922 24.9397 22.527 25.379 22.0145 25.4485L21.872 25.4581H6.192C5.66042 25.4581 5.22111 25.0631 5.15158 24.5506L5.14199 24.4081V7.30773L3.392 7.30813C2.86042 7.30813 2.42111 6.91311 2.35158 6.40061L2.342 6.25813C2.342 5.72656 2.73701 5.28724 3.24952 5.21772L3.392 5.20813L9.62199 5.20773V3.50813C9.62199 2.97656 10.017 2.53724 10.5295 2.46772L10.672 2.45813H17.392ZM20.822 7.30773H7.242V23.3581H20.822V7.30773ZM16.272 10.3422C16.8519 10.3422 17.322 10.8123 17.322 11.3922V20.5581C17.322 21.138 16.8519 21.6081 16.272 21.6081C15.6921 21.6081 15.222 21.138 15.222 20.5581V11.3922C15.222 10.8123 15.6921 10.3422 16.272 10.3422ZM11.792 10.3422C12.3719 10.3422 12.842 10.8123 12.842 11.3922V20.5581C12.842 21.138 12.3719 21.6081 11.792 21.6081C11.2121 21.6081 10.742 21.138 10.742 20.5581V11.3922C10.742 10.8123 11.2121 10.3422 11.792 10.3422ZM16.342 4.55813H11.722V5.20773H16.342V4.55813Z" fill="white"/>
</mask>
<g mask="url(#mask0_340_661)">
<path d="M17.392 2.45813C17.9236 2.45813 18.3629 2.85315 18.4324 3.36565L18.442 3.50813V5.20773L24.8758 5.20813C25.4073 5.20813 25.8467 5.60315 25.9162 6.11565L25.9258 6.25813C25.9258 6.7897 25.5308 7.22902 25.0182 7.29854L24.8758 7.30813L22.922 7.30773V24.4081C22.922 24.9397 22.527 25.379 22.0145 25.4485L21.872 25.4581H6.192C5.66042 25.4581 5.22111 25.0631 5.15158 24.5506L5.14199 24.4081V7.30773L3.392 7.30813C2.86042 7.30813 2.42111 6.91311 2.35158 6.40061L2.342 6.25813C2.342 5.72656 2.73701 5.28724 3.24952 5.21772L3.392 5.20813L9.62199 5.20773V3.50813C9.62199 2.97656 10.017 2.53724 10.5295 2.46772L10.672 2.45813H17.392ZM20.822 7.30773H7.242V23.3581H20.822V7.30773ZM16.272 10.3422C16.8519 10.3422 17.322 10.8123 17.322 11.3922V20.5581C17.322 21.138 16.8519 21.6081 16.272 21.6081C15.6921 21.6081 15.222 21.138 15.222 20.5581V11.3922C15.222 10.8123 15.6921 10.3422 16.272 10.3422ZM11.792 10.3422C12.3719 10.3422 12.842 10.8123 12.842 11.3922V20.5581C12.842 21.138 12.3719 21.6081 11.792 21.6081C11.2121 21.6081 10.742 21.138 10.742 20.5581V11.3922C10.742 10.8123 11.2121 10.3422 11.792 10.3422ZM16.342 4.55813H11.722V5.20773H16.342V4.55813Z" fill="white"/>
</g>
</svg>
